<svg width="73" height="16" viewBox="0 0 73 16" fill="none" xmlns="http://www.w3.org/2000/svg">
<path d="M37.5923 9.23612C37.5923 9.04536 37.5622 8.87416 37.5018 8.72252C37.4464 8.566 37.3408 8.42415 37.1848 8.29697C37.0289 8.1649 36.81 8.03528 36.5283 7.9081C36.2465 7.78092 35.8818 7.64886 35.434 7.5119C34.9359 7.35537 34.463 7.17928 34.0152 6.98362C33.5725 6.78796 33.1801 6.56051 32.8379 6.30127C32.5009 6.03713 32.2342 5.73141 32.038 5.38412C31.8468 5.03683 31.7512 4.63329 31.7512 4.17349C31.7512 3.72837 31.8518 3.32483 32.0531 2.96286C32.2543 2.59601 32.5361 2.28295 32.8983 2.02371C33.2606 1.75957 33.6882 1.55658 34.1813 1.41472C34.6793 1.27287 35.2252 1.20195 35.8189 1.20195C36.6289 1.20195 37.3358 1.3438 37.9395 1.6275C38.5432 1.91121 39.0111 2.30007 39.3432 2.79411C39.6803 3.28814 39.8488 3.8531 39.8488 4.48899H37.5999C37.5999 4.17594 37.532 3.90202 37.3961 3.66723C37.2653 3.42755 37.0641 3.23923 36.7924 3.10227C36.5258 2.96531 36.1887 2.89683 35.7811 2.89683C35.3887 2.89683 35.0617 2.95553 34.8001 3.07292C34.5385 3.18542 34.3422 3.3395 34.2114 3.53516C34.0806 3.72593 34.0152 3.94115 34.0152 4.18083C34.0152 4.36181 34.0605 4.52568 34.1511 4.67242C34.2467 4.81916 34.3875 4.95612 34.5737 5.0833C34.7598 5.21048 34.9887 5.33032 35.2604 5.44282C35.5321 5.55532 35.8466 5.66538 36.2038 5.77299C36.8025 5.94908 37.3282 6.14719 37.781 6.3673C38.2388 6.58741 38.6212 6.83443 38.9281 7.10835C39.235 7.38227 39.4664 7.69288 39.6224 8.04017C39.7784 8.38746 39.8564 8.78122 39.8564 9.22145C39.8564 9.68614 39.7633 10.1019 39.5771 10.4688C39.391 10.8356 39.1218 11.1462 38.7696 11.4006C38.4175 11.6549 37.9974 11.8482 37.5093 11.9802C37.0213 12.1123 36.4754 12.1783 35.8717 12.1783C35.3283 12.1783 34.7925 12.1098 34.2643 11.9729C33.736 11.831 33.2555 11.6183 32.8228 11.3345C32.3952 11.0508 32.0531 10.6889 31.7965 10.2487C31.5399 9.80842 31.4116 9.28749 31.4116 8.68584H33.6832C33.6832 9.01846 33.736 9.29971 33.8417 9.52961C33.9473 9.75951 34.0957 9.94538 34.2869 10.0872C34.4831 10.2291 34.7145 10.3318 34.9812 10.3954C35.2529 10.459 35.5497 10.4908 35.8717 10.4908C36.2641 10.4908 36.5861 10.437 36.8377 10.3294C37.0943 10.2217 37.2829 10.0726 37.4037 9.88179C37.5295 9.69103 37.5923 9.47581 37.5923 9.23612Z" fill="#8C8A97"/>
<path d="M43.6825 11.1364L45.8484 4.09278H48.1803L44.8975 13.2275C44.8271 13.4281 44.7315 13.6433 44.6108 13.8732C44.495 14.1031 44.3366 14.3208 44.1353 14.5262C43.9391 14.7365 43.6901 14.9077 43.3882 15.0398C43.0914 15.1719 42.7266 15.2379 42.2939 15.2379C42.0877 15.2379 41.9191 15.2257 41.7883 15.2012C41.6575 15.1768 41.5015 15.1425 41.3204 15.0985V13.5504C41.3757 13.5504 41.4336 13.5504 41.494 13.5504C41.5544 13.5553 41.6122 13.5577 41.6676 13.5577C41.9543 13.5577 42.1883 13.5259 42.3694 13.4623C42.5505 13.3987 42.6964 13.3009 42.8071 13.1688C42.9178 13.0417 43.0058 12.8754 43.0712 12.6699L43.6825 11.1364ZM42.7769 4.09278L44.5504 9.84511L44.8598 12.0829L43.3806 12.237L40.445 4.09278H42.7769Z" fill="#8C8A97"/>
<path d="M51.1764 5.78767V12.0316H49.0029V4.09278H51.0405L51.1764 5.78767ZM50.8594 7.78337H50.2708C50.2708 7.1964 50.3487 6.66812 50.5047 6.19855C50.6607 5.72408 50.8795 5.32053 51.1613 4.98792C51.443 4.65041 51.7776 4.39361 52.165 4.21752C52.5574 4.03653 52.9951 3.94604 53.4781 3.94604C53.8605 3.94604 54.2101 3.99985 54.5271 4.10746C54.8441 4.21507 55.1157 4.38627 55.3421 4.62106C55.5736 4.85585 55.7497 5.16645 55.8704 5.55288C55.9962 5.9393 56.0591 6.41132 56.0591 6.96895V12.0316H53.8705V6.96161C53.8705 6.60943 53.8202 6.33551 53.7196 6.13985C53.619 5.94419 53.4706 5.80723 53.2743 5.72897C53.0832 5.64581 52.8467 5.60424 52.565 5.60424C52.2731 5.60424 52.0191 5.66049 51.8027 5.77299C51.5914 5.88549 51.4153 6.04202 51.2745 6.24257C51.1386 6.43823 51.0355 6.66812 50.9651 6.93226C50.8946 7.1964 50.8594 7.4801 50.8594 7.78337Z" fill="#8C8A97"/>
<path d="M61.0852 10.5275C61.3518 10.5275 61.5883 10.4785 61.7945 10.3807C62.0008 10.278 62.1618 10.1361 62.2775 9.95517C62.3983 9.76929 62.4612 9.55162 62.4662 9.30216H64.5113C64.5063 9.85978 64.3529 10.3563 64.051 10.7916C63.7491 11.222 63.3441 11.562 62.836 11.8115C62.3278 12.056 61.7593 12.1783 61.1304 12.1783C60.4965 12.1783 59.9431 12.0756 59.4702 11.8702C59.0023 11.6647 58.6124 11.381 58.3004 11.0191C57.9885 10.6522 57.7546 10.2266 57.5986 9.74239C57.4426 9.25325 57.3646 8.72986 57.3646 8.17224V7.95946C57.3646 7.39695 57.4426 6.87356 57.5986 6.38931C57.7546 5.90017 57.9885 5.47461 58.3004 5.11265C58.6124 4.74579 59.0023 4.45964 59.4702 4.2542C59.9381 4.04876 60.4864 3.94604 61.1153 3.94604C61.7845 3.94604 62.3706 4.07077 62.8737 4.32024C63.3819 4.5697 63.7793 4.92677 64.0661 5.39146C64.3579 5.85125 64.5063 6.39665 64.5113 7.02764H62.4662C62.4612 6.76351 62.4033 6.52383 62.2926 6.3086C62.187 6.09338 62.031 5.92218 61.8247 5.795C61.6235 5.66293 61.3744 5.5969 61.0776 5.5969C60.7606 5.5969 60.5015 5.66293 60.3003 5.795C60.0991 5.92218 59.9431 6.09827 59.8324 6.32328C59.7217 6.54339 59.6437 6.7953 59.5985 7.079C59.5582 7.35782 59.5381 7.6513 59.5381 7.95946V8.17224C59.5381 8.4804 59.5582 8.77633 59.5985 9.06003C59.6387 9.34374 59.7142 9.59565 59.8249 9.81576C59.9406 10.0359 60.0991 10.2095 60.3003 10.3367C60.5015 10.4639 60.7632 10.5275 61.0852 10.5275Z" fill="#8C8A97"/>
<path d="M67.8923 0.761719V12.0316H65.7188V0.761719H67.8923ZM67.5828 7.78337H66.9867C66.9917 7.23064 67.0672 6.72193 67.2131 6.25724C67.359 5.78767 67.5677 5.38168 67.8394 5.03928C68.1111 4.69198 68.4356 4.42296 68.813 4.23219C69.1953 4.04142 69.6179 3.94604 70.0808 3.94604C70.4833 3.94604 70.848 4.00229 71.1751 4.1148C71.5071 4.22241 71.7914 4.3985 72.0278 4.64307C72.2693 4.88275 72.4555 5.19825 72.5863 5.58956C72.7171 5.98088 72.7825 6.45535 72.7825 7.01297V12.0316H70.594V6.99829C70.594 6.64611 70.5411 6.36975 70.4355 6.1692C70.3349 5.96376 70.1864 5.81946 69.9902 5.73631C69.799 5.64826 69.5626 5.60424 69.2808 5.60424C68.9689 5.60424 68.7023 5.66049 68.4809 5.77299C68.2646 5.88549 68.091 6.04202 67.9602 6.24257C67.8294 6.43823 67.7338 6.66812 67.6734 6.93226C67.613 7.1964 67.5828 7.4801 67.5828 7.78337Z" fill="#8C8A97"/>
<path d="M6.64475 8.43059H8.88212C8.83722 9.1631 8.63519 9.81338 8.27601 10.3814C7.92182 10.9495 7.42546 11.393 6.78693 11.7119C6.15338 12.0308 5.39013 12.1903 4.49718 12.1903C3.79878 12.1903 3.17272 12.0707 2.61899 11.8315C2.06526 11.5873 1.59135 11.2385 1.19725 10.7851C0.808146 10.3316 0.511327 9.78348 0.306796 9.14067C0.102265 8.49786 0 7.77781 0 6.98053V6.2256C0 5.42832 0.10476 4.70827 0.314279 4.06546C0.528787 3.41767 0.833089 2.86705 1.22718 2.41359C1.62627 1.96014 2.10268 1.61132 2.6564 1.36716C3.21013 1.12299 3.82872 1.0009 4.51215 1.0009C5.42006 1.0009 6.18581 1.16534 6.80938 1.49422C7.43793 1.8231 7.92432 2.27656 8.26853 2.85459C8.61773 3.43262 8.82725 4.09038 8.89709 4.82787H6.65224C6.62729 4.38936 6.53999 4.01812 6.39034 3.71416C6.24068 3.40521 6.0137 3.1735 5.7094 3.01903C5.41009 2.85957 5.011 2.77984 4.51215 2.77984C4.13801 2.77984 3.81126 2.84961 3.5319 2.98913C3.25254 3.12865 3.01808 3.34043 2.82851 3.62447C2.63895 3.9085 2.49677 4.26728 2.40199 4.7008C2.31219 5.12934 2.2673 5.63262 2.2673 6.21065V6.98053C2.2673 7.54361 2.3097 8.03942 2.39451 8.46796C2.47931 8.89152 2.60901 9.2503 2.78361 9.5443C2.9632 9.83331 3.19267 10.0526 3.47203 10.2021C3.75638 10.3466 4.0981 10.4188 4.49718 10.4188C4.96611 10.4188 5.35272 10.3441 5.65702 10.1946C5.96132 10.0451 6.19329 9.82335 6.35292 9.52935C6.51755 9.23535 6.61482 8.8691 6.64475 8.43059Z" fill="#FBAB34"/>
<path d="M9.87734 8.07929V7.92232C9.87734 7.32934 9.96214 6.7837 10.1318 6.2854C10.3014 5.78211 10.5483 5.3461 10.8726 4.97736C11.1968 4.60861 11.5959 4.32209 12.0698 4.11778C12.5437 3.9085 13.0875 3.80385 13.7011 3.80385C14.3147 3.80385 14.8609 3.9085 15.3398 4.11778C15.8187 4.32209 16.2203 4.60861 16.5445 4.97736C16.8738 5.3461 17.1232 5.78211 17.2928 6.2854C17.4624 6.7837 17.5472 7.32934 17.5472 7.92232V8.07929C17.5472 8.66728 17.4624 9.21293 17.2928 9.71621C17.1232 10.2145 16.8738 10.6505 16.5445 11.0243C16.2203 11.393 15.8212 11.6795 15.3473 11.8838C14.8734 12.0881 14.3296 12.1903 13.716 12.1903C13.1024 12.1903 12.5562 12.0881 12.0773 11.8838C11.6034 11.6795 11.2018 11.393 10.8726 11.0243C10.5483 10.6505 10.3014 10.2145 10.1318 9.71621C9.96214 9.21293 9.87734 8.66728 9.87734 8.07929ZM12.0324 7.92232V8.07929C12.0324 8.41813 12.0623 8.73456 12.1222 9.02855C12.182 9.32255 12.2768 9.58167 12.4065 9.80591C12.5412 10.0252 12.7158 10.1971 12.9303 10.3216C13.1448 10.4462 13.4067 10.5085 13.716 10.5085C14.0153 10.5085 14.2723 10.4462 14.4868 10.3216C14.7013 10.1971 14.8734 10.0252 15.0031 9.80591C15.1328 9.58167 15.2276 9.32255 15.2874 9.02855C15.3523 8.73456 15.3847 8.41813 15.3847 8.07929V7.92232C15.3847 7.59344 15.3523 7.2845 15.2874 6.99548C15.2276 6.70148 15.1303 6.44236 14.9956 6.21813C14.8659 5.98891 14.6938 5.80952 14.4793 5.67996C14.2648 5.5504 14.0054 5.48562 13.7011 5.48562C13.3968 5.48562 13.1374 5.5504 12.9228 5.67996C12.7133 5.80952 12.5412 5.98891 12.4065 6.21813C12.2768 6.44236 12.182 6.70148 12.1222 6.99548C12.0623 7.2845 12.0324 7.59344 12.0324 7.92232Z" fill="#FBAB34"/>
<path d="M21.1465 3.95334V12.0408H18.9839V3.95334H21.1465ZM18.8493 1.84553C18.8493 1.5316 18.959 1.27248 19.1785 1.06817C19.398 0.863871 19.6923 0.761719 20.0615 0.761719C20.4256 0.761719 20.7175 0.863871 20.937 1.06817C21.1614 1.27248 21.2737 1.5316 21.2737 1.84553C21.2737 2.15946 21.1614 2.41857 20.937 2.62288C20.7175 2.82718 20.4256 2.92933 20.0615 2.92933C19.6923 2.92933 19.398 2.82718 19.1785 2.62288C18.959 2.41857 18.8493 2.15946 18.8493 1.84553Z" fill="#FBAB34"/>
<path d="M25.0376 5.67996V12.0408H22.8825V3.95334H24.9029L25.0376 5.67996ZM24.7233 7.71304H24.1396C24.1396 7.11507 24.2169 6.57691 24.3716 6.09854C24.5262 5.61518 24.7432 5.20408 25.0226 4.86524C25.3019 4.52141 25.6337 4.2598 26.0178 4.08041C26.4069 3.89604 26.8409 3.80385 27.3198 3.80385C27.6989 3.80385 28.0457 3.85867 28.3599 3.96829C28.6742 4.07792 28.9436 4.25233 29.1681 4.49151C29.3975 4.7307 29.5721 5.04712 29.6919 5.44078C29.8166 5.83444 29.8789 6.3153 29.8789 6.88336V12.0408H27.7089V6.87589C27.7089 6.51711 27.659 6.23806 27.5593 6.03874C27.4595 5.83942 27.3123 5.69989 27.1178 5.62017C26.9282 5.53545 26.6938 5.4931 26.4144 5.4931C26.1251 5.4931 25.8731 5.5504 25.6586 5.66501C25.4491 5.77962 25.2745 5.93908 25.1348 6.14338C25.0001 6.3427 24.8979 6.57691 24.828 6.84599C24.7582 7.11507 24.7233 7.40409 24.7233 7.71304Z" fill="#FBAB34"/>
</svg>
